<?xml version="1.0" encoding="UTF-8" standalone="no"?>
<!-- Page 9 -->

<svg
   xmlns:dc="http://purl.org/dc/elements/1.1/"
   xmlns:cc="http://creativecommons.org/ns#"
   xmlns:rdf="http://www.w3.org/1999/02/22-rdf-syntax-ns#"
   xmlns:svg="http://www.w3.org/2000/svg"
   xmlns="http://www.w3.org/2000/svg"
   xmlns:xlink="http://www.w3.org/1999/xlink"
   xmlns:sodipodi="http://sodipodi.sourceforge.net/DTD/sodipodi-0.dtd"
   xmlns:inkscape="http://www.inkscape.org/namespaces/inkscape"
   x="0"
   y="0"
   width="3000"
   height="3000"
   viewBox="0 0 3000 3000"
   version="1.1"
   style="display:block"
   id="svg163"
   sodipodi:docname="tomaat_binary1.svg"
   inkscape:version="0.92.2 5c3e80d, 2017-08-06">
  <metadata
     id="metadata167">
    <rdf:RDF>
      <cc:Work
         rdf:about="">
        <dc:format>image/svg+xml</dc:format>
        <dc:type
           rdf:resource="http://purl.org/dc/dcmitype/StillImage" />
        <dc:title></dc:title>
      </cc:Work>
    </rdf:RDF>
  </metadata>
  <sodipodi:namedview
     pagecolor="#ffffff"
     bordercolor="#666666"
     borderopacity="1"
     objecttolerance="10"
     gridtolerance="10"
     guidetolerance="10"
     inkscape:pageopacity="0"
     inkscape:pageshadow="2"
     inkscape:window-width="1362"
     inkscape:window-height="917"
     id="namedview165"
     showgrid="false"
     inkscape:zoom="0.21219232"
     inkscape:cx="1579.0504"
     inkscape:cy="1431.4185"
     inkscape:window-x="0"
     inkscape:window-y="0"
     inkscape:window-maximized="0"
     inkscape:current-layer="svg163"
     inkscape:snap-page="false" />
  <defs
     id="defs22">
    <clipPath
       id="c0_9">
      <path
         d="M 544.7,1063 V 875.1 h 470.8 V 1063 Z"
         id="path2"
         inkscape:connector-curvature="0" />
    </clipPath>
    <clipPath
       id="c1_9">
      <path
         d="m 386.7,1084.1 v -94 h 791 v 94 z"
         id="path5"
         inkscape:connector-curvature="0" />
    </clipPath>
    <clipPath
       id="c2_9">
      <path
         d="m 557.4,441.1 -46.7,-10.8 13.7,-59.2 46.6,10.8 z"
         id="path8"
         inkscape:connector-curvature="0" />
    </clipPath>
    <clipPath
       id="c3_9">
      <path
         d="m 376.9,673.4 -15.2,-71.8 89,-18.9 15.3,71.7 z"
         id="path11"
         inkscape:connector-curvature="0" />
    </clipPath>
    <clipPath
       id="c4_9">
      <path
         d="m 587.7,480.6 -29.1,-52.5 26.6,-14.7 29.1,52.5 z"
         id="path14"
         inkscape:connector-curvature="0" />
    </clipPath>
    <clipPath
       id="c5_9">
      <path
         d="m 528.2,293 -19.1,-6.4 22,-66.1 19.2,6.3 z"
         id="path17"
         inkscape:connector-curvature="0" />
    </clipPath>
    <style
       type="text/css"
       id="style20"><![CDATA[

.g0_9{
fill: #FFFFFF;
}
.g1_9{
fill: none;
stroke: #000000;
stroke-width: 4.5833335;
stroke-linecap: butt;
stroke-linejoin: miter;
stroke-miterlimit: 4;
}
.g2_9{
fill: none;
stroke: #000000;
stroke-width: 4.4658623;
stroke-linecap: butt;
stroke-linejoin: miter;
stroke-miterlimit: 4;
}
.g3_9{
fill: none;
stroke: #000000;
stroke-width: 4.483142;
stroke-linecap: butt;
stroke-linejoin: miter;
stroke-miterlimit: 4;
}
.g4_9{
fill: none;
stroke: #000000;
stroke-width: 4.0086293;
stroke-linecap: butt;
stroke-linejoin: miter;
stroke-miterlimit: 4;
}
.g5_9{
fill: none;
stroke: #000000;
stroke-width: 4.348117;
stroke-linecap: butt;
stroke-linejoin: miter;
stroke-miterlimit: 4;
}

.s1_9{
font-size: 91.67px;
font-family: AvenirNext-Regular_u;
fill: TRANSPARENT;
}
.s2_9{
font-size: 45.83px;
font-family: AvenirNext-Regular_u;
fill: TRANSPARENT;
}
text::-moz-selection {
	color: transparent;
	background: rgba(0, 106, 173, 0.4);
}
text::selection {
	color: transparent;
	background: rgba(0, 106, 173, 0.4);
}

]]></style>
  </defs>
  <g
     clip-path="url(#c0_9)"
     id="g42"
     transform="matrix(2.917589,0,0,2.772648,-660.63405,-335.52857)">
    <g
       id="g40"
       style="fill:#000000">
      <use
         xlink:href="#f0_8"
         transform="matrix(60,0,0,60,588.2,997.6)"
         id="use28"
         x="0"
         y="0"
         width="100%"
         height="100%" />
      <use
         xlink:href="#f0_7"
         transform="matrix(60,0,0,60,637.7,997.6)"
         id="use30"
         x="0"
         y="0"
         width="100%"
         height="100%" />
      <use
         xlink:href="#f0_6"
         transform="matrix(60,0,0,60,715.6,997.6)"
         id="use32"
         x="0"
         y="0"
         width="100%"
         height="100%" />
      <use
         xlink:href="#f0_3"
         transform="matrix(60,0,0,60,796.8,997.6)"
         id="use34"
         x="0"
         y="0"
         width="100%"
         height="100%" />
      <use
         xlink:href="#f0_3"
         transform="matrix(60,0,0,60,861,997.6)"
         id="use36"
         x="0"
         y="0"
         width="100%"
         height="100%" />
      <use
         xlink:href="#f0_8"
         transform="matrix(60,0,0,60,919.7,997.6)"
         id="use38"
         x="0"
         y="0"
         width="100%"
         height="100%" />
    </g>
  </g>
  <g
     clip-path="url(#c1_9)"
     id="g108"
     transform="matrix(2.917589,0,0,2.772648,-660.63405,-335.52857)">
    <g
       id="g106"
       style="fill:#000000">
      <use
         xlink:href="#f0_6"
         transform="matrix(30,0,0,30,403.3,1051.1)"
         id="use46"
         x="0"
         y="0"
         width="100%"
         height="100%" />
      <use
         xlink:href="#f0_c"
         transform="matrix(30,0,0,30,443.9,1051.1)"
         id="use48"
         x="0"
         y="0"
         width="100%"
         height="100%" />
      <use
         xlink:href="#f0_b"
         transform="matrix(30,0,0,30,470.2,1051.1)"
         id="use50"
         x="0"
         y="0"
         width="100%"
         height="100%" />
      <use
         xlink:href="#f0_f"
         transform="matrix(30,0,0,30,499.4,1051.1)"
         id="use52"
         x="0"
         y="0"
         width="100%"
         height="100%" />
      <use
         xlink:href="#f0_a"
         transform="matrix(30,0,0,30,510.8,1051.1)"
         id="use54"
         x="0"
         y="0"
         width="100%"
         height="100%" />
      <use
         xlink:href="#f0_9"
         transform="matrix(30,0,0,30,533.7,1051.1)"
         id="use56"
         x="0"
         y="0"
         width="100%"
         height="100%" />
      <use
         xlink:href="#f0_g"
         transform="matrix(30,0,0,30,558.2,1051.1)"
         id="use58"
         x="0"
         y="0"
         width="100%"
         height="100%" />
      <use
         xlink:href="#f0_5"
         transform="matrix(30,0,0,30,581.2,1051.1)"
         id="use60"
         x="0"
         y="0"
         width="100%"
         height="100%" />
      <use
         xlink:href="#f0_h"
         transform="matrix(30,0,0,30,593.1,1051.1)"
         id="use62"
         x="0"
         y="0"
         width="100%"
         height="100%" />
      <use
         xlink:href="#f0_9"
         transform="matrix(30,0,0,30,633.6,1051.1)"
         id="use64"
         x="0"
         y="0"
         width="100%"
         height="100%" />
      <use
         xlink:href="#f0_d"
         transform="matrix(30,0,0,30,658.1,1051.1)"
         id="use66"
         x="0"
         y="0"
         width="100%"
         height="100%" />
      <use
         xlink:href="#f0_c"
         transform="matrix(30,0,0,30,687,1051.1)"
         id="use68"
         x="0"
         y="0"
         width="100%"
         height="100%" />
      <use
         xlink:href="#f0_3"
         transform="matrix(30,0,0,30,723.9,1051.1)"
         id="use70"
         x="0"
         y="0"
         width="100%"
         height="100%" />
      <use
         xlink:href="#f0_i"
         transform="matrix(30,0,0,30,756,1051.1)"
         id="use72"
         x="0"
         y="0"
         width="100%"
         height="100%" />
      <use
         xlink:href="#f0_9"
         transform="matrix(30,0,0,30,782.6,1051.1)"
         id="use74"
         x="0"
         y="0"
         width="100%"
         height="100%" />
      <use
         xlink:href="#f0_g"
         transform="matrix(30,0,0,30,807.1,1051.1)"
         id="use76"
         x="0"
         y="0"
         width="100%"
         height="100%" />
      <use
         xlink:href="#f0_n"
         transform="matrix(30,0,0,30,818.6,1051.1)"
         id="use78"
         x="0"
         y="0"
         width="100%"
         height="100%" />
      <use
         xlink:href="#f0_k"
         transform="matrix(30,0,0,30,841,1051.1)"
         id="use80"
         x="0"
         y="0"
         width="100%"
         height="100%" />
      <use
         xlink:href="#f0_f"
         transform="matrix(30,0,0,30,861.3,1051.1)"
         id="use82"
         x="0"
         y="0"
         width="100%"
         height="100%" />
      <use
         xlink:href="#f0_k"
         transform="matrix(30,0,0,30,872.8,1051.1)"
         id="use84"
         x="0"
         y="0"
         width="100%"
         height="100%" />
      <use
         xlink:href="#f0_f"
         transform="matrix(30,0,0,30,904.6,1051.1)"
         id="use86"
         x="0"
         y="0"
         width="100%"
         height="100%" />
      <use
         xlink:href="#f0_i"
         transform="matrix(30,0,0,30,916.1,1051.1)"
         id="use88"
         x="0"
         y="0"
         width="100%"
         height="100%" />
      <use
         xlink:href="#f0_l"
         transform="matrix(30,0,0,30,954.2,1051.1)"
         id="use90"
         x="0"
         y="0"
         width="100%"
         height="100%" />
      <use
         xlink:href="#f0_e"
         transform="matrix(30,0,0,30,968.7,1051.1)"
         id="use92"
         x="0"
         y="0"
         width="100%"
         height="100%" />
      <use
         xlink:href="#f0_c"
         transform="matrix(30,0,0,30,995.4,1051.1)"
         id="use94"
         x="0"
         y="0"
         width="100%"
         height="100%" />
      <use
         xlink:href="#f0_4"
         transform="matrix(30,0,0,30,1033.1,1051.1)"
         id="use96"
         x="0"
         y="0"
         width="100%"
         height="100%" />
      <use
         xlink:href="#f0_g"
         transform="matrix(30,0,0,30,1066.1,1051.1)"
         id="use98"
         x="0"
         y="0"
         width="100%"
         height="100%" />
      <use
         xlink:href="#f0_j"
         transform="matrix(30,0,0,30,1077.6,1051.1)"
         id="use100"
         x="0"
         y="0"
         width="100%"
         height="100%" />
      <use
         xlink:href="#f0_m"
         transform="matrix(30,0,0,30,1105.6,1051.1)"
         id="use102"
         x="0"
         y="0"
         width="100%"
         height="100%" />
      <use
         xlink:href="#f0_b"
         transform="matrix(30,0,0,30,1132.3,1051.1)"
         id="use104"
         x="0"
         y="0"
         width="100%"
         height="100%" />
    </g>
  </g>
  <path
     d="m 1370.5914,695.89637 132.1667,-17.7449 1.1671,113.124 z m 847.8513,6.9316 -105.3249,36.3217 68.2715,161.6454 z m 1.7505,-1.3863 -35.3027,197.4126 165.4273,-120.8875 z m 123.4141,80.9613 -158.7168,111.1832 142.3784,-1.9409 z m 5.2517,-7.2088 114.0776,118.9466 -133.0419,-5.2681 z m -24.216,118.392 41.1383,65.9891 106.4916,-63.2165 z m -140.3361,0.8318 7.5858,90.6656 148.2134,-97.3199 z m 140.3361,0.2773 -130.1245,91.4973 179.4316,-21.0721 z m -238.9506,-223.4754 30.0512,74.5842 110.8684,-40.7579 z m -9.628,-2.2181 -173.0131,3.8817 83.7349,174.6768 z m -168.0531,4.4362 -42.8886,78.4659 124.2893,95.1019 z m 404.6694,472.73643 98.3226,-133.3644 36.1785,178.004 z m -119.3293,-156.93183 77.6079,79.29773 105.0332,-110.35143 z m 274.8369,-95.6564 -58.3518,120.88743 128.374,22.4585 z m 63.3118,142.23683 -84.0266,154.4365 -28.3005,-168.0225 z m -60.3943,-136.96873 -109.1176,72.0888 52.808,48.79863 z m -199.5629,171.62683 144.4208,-54.3439 -48.7241,-41.03513 z m 145.004,-52.6803 -145.5876,53.7894 44.0557,78.7432 z m -338.1485,-346.58093 -89.2782,171.6269 180.0153,16.0813 z m 452.81,367.09853 -84.6102,149.4457 120.4965,42.9761 z m -216.777,108.4105 17.5055,145.0095 125.4565,-101.4789 z m 133.0421,42.4216 -120.7883,104.5288 81.4008,95.9336 z m -2.6258,-2.7727 118.4541,48.5213 -152.59,150.5548 z m 123.7058,44.9169 -1.1673,177.7267 -147.9217,-22.4585 z m -233.4073,59.6119 -35.011,113.6786 115.5364,-11.9224 z m 231.0732,116.174 -175.6387,72.0888 21.8816,-91.7747 z m -148.7974,-23.2903 -118.4537,26.8947 95.9885,81.2386 z m 144.7126,21.6267 -171.2624,72.3661 116.9953,113.6785 z m -571.2638,-561.46123 -0.8753,46.3032 100.0733,-39.0943 z m 100.9486,7.2089 -37.0534,77.0796 -58.3518,-34.6581 z m 0.5834,3.3272 42.8887,85.6748 -71.481,-11.9224 z m -0.2917,-1.1091 77.0244,6.9316 -31.5101,89.8339 z m 77.3161,11.6451 -25.383,78.466 52.2248,44.0851 z m -3.2093,226.24813 148.5052,54.8984 -111.4518,125.3237 z m 149.6723,57.1165 -114.6613,123.6601 136.8348,26.0629 z m -14.8797,258.6881 -45.5143,162.4771 150.8391,-87.0611 z m 102.6994,79.8522 -143.8374,79.8523 132.7502,16.3586 z m 109.1176,92.8837 -133.9177,7.4861 26.2584,-92.8837 z m -252.3716,-14.9723 -3.7927,82.6249 137.4182,-64.6027 z m 122.8307,21.6267 -84.3183,167.1906 -35.3029,-107.3014 z m 128.9575,-6.3771 -81.6929,172.1814 -44.3473,-165.8043 z m -131.2916,17.7449 -82.2763,159.15 142.9622,3.3272 z m -80.2337,159.7045 37.0534,130.3145 96.8636,-126.1555 z m -2.6258,-2.7726 -251.4963,80.9613 224.9462,29.1128 z m -29.7596,106.7469 69.1471,34.9354 -35.5946,-137.2461 z m -13.7126,-145.0095 -206.857,116.4512 255.2889,-77.3568 z m 10.2116,-73.1978 -7.5858,74.8614 48.1405,36.599 z m -11.9621,72.366 -205.9818,-60.1664 -18.3808,103.1425 z m -1.4588,5.8226 -219.111,39.6489 11.6704,81.7931 z m -257.9149,-826.24903 -39.0957,97.8745 115.2448,-65.1573 z m 84.0266,36.8762 -22.7572,62.6619 94.8216,-49.9077 z m -3.5011,0.8318 -77.3161,41.867 61.2693,23.8448 z m -126.9151,70.97983 107.0754,-3.3272 -60.394,-21.62663 z m 2.6258,2.2181 7.5857,52.6803 106.2002,-59.88923 m -7.5857,0.5546 -8.461,92.05193 -80.8172,-27.7265 z m 90.1536,-52.4031 -27.7172,131.97813 -58.6435,-74.8615 z m -27.1337,134.47343 -75.8573,12.1997 15.4632,-86.2294 z m -72.0644,7.2089 -119.9129,68.7616 187.0175,17.745 z m -121.9552,68.4844 -79.942,121.9965 258.2068,29.1128 z m 8.1692,6.3771 168.3449,147.2276 11.6704,-50.185 z m -1.4588,-2.2181 182.0575,14.695 0.5836,95.6563 z m 35.3029,-105.6379 -45.2227,105.6379 134.7926,-71.8116 z m 3.5011,5.8226 -182.9329,-8.318 138.5855,108.6878 z m -178.8482,-7.7635 56.3094,227.3572 84.9019,-121.442 z m 2.0423,2.4954 -185.8504,158.0409 250.0373,75.1388 z m 163.6767,-51.294 -173.5965,49.0759 179.7235,6.9316 z m -74.982,-35.48983 -93.0711,90.38833 182.0575,-52.9576 z m 263.4582,-22.4585 -27.717,135.30523 85.1936,-97.31993 z m -25.0911,133.36443 -68.8552,12.7542 61.5611,81.5158 z m -6.7105,99.538 49.0154,92.8837 -46.0978,0.8318 z m 152.5898,376.5256 -102.4074,95.6563 95.4053,-7.2089 z m -1.4587,88.7247 -112.6189,9.7042 106.2001,71.2571 z m -96.8641,8.8725 -116.7035,2.7726 198.9796,65.4345 z m 100.3652,208.7803 -36.7617,113.1241 -179.4317,-135.5825 z m -2.9177,0.2773 -34.4274,111.7377 117.5788,-86.2294 z m -209.1911,-19.6858 33.8441,207.394 148.2135,-77.3568 z m -2.0423,-3.0499 -169.5119,77.9114 207.1488,128.9281 z m -159.8838,81.7931 33.5522,214.6029 171.2626,-93.4382 z m 0,-7.4862 -155.2158,232.9024 198.6878,-6.6543 z m 2.334,3.3272 -193.7279,43.5306 42.8886,190.7581 z m -192.8526,41.5897 -87.8194,126.9873 135.6678,67.9299 z m -83.4431,123.6601 -56.0177,79.0205 194.0197,-5.2681 z m 578.5578,-1093.25493 -81.6924,90.66563 163.3851,-6.3772 z m 79.6503,86.22933 -114.953,9.7043 154.3405,65.989 z m -158.4252,3.3272 -7.2938,93.7155 65.0622,-85.1203 z m 53.3919,6.6543 -61.2692,92.6065 96.5721,99.8153 z m -58.9352,93.9928 45.2226,94.5472 54.2672,-3.3271 z m 99.1981,91.4973 8.7527,83.1795 -114.953,-47.9668 z m 0.5834,0.5546 83.7349,36.8762 -74.3986,48.2441 m 111.4518,-61.8301 -121.9551,-26.8947 83.4431,42.9761 z m -2.0422,-4.1589 -110.2849,65.7117 82.8595,54.3439 z m -229.3225,11.3678 -52.5166,101.7562 -199.2713,-123.9374 z m -1.1671,2.2181 12.2539,119.2239 -56.6012,-20.2403 z m 0.5837,0.5546 117.8705,53.512 -105.9084,75.1388 z m 127.7904,54.0666 -30.343,122.2737 -79.0668,-48.244 z m 75.2737,48.5213 -109.7013,73.7524 35.3027,-115.3421 z m -1.1668,-3.3271 -109.1181,74.8614 63.3118,89.8338 z m -103.2828,75.6932 -51.058,50.1849 115.2449,39.9262 z m -77.8998,-49.6304 28.8842,102.8652 53.6836,-51.0167 z m 140.3362,131.9781 -102.1157,87.3383 -2.6258,-115.0648 z m -104.4498,-31.0537 -76.7326,47.9668 91.3206,71.2571 z m -73.5232,51.0167 -35.8863,74.8615 130.4162,-7.2089 z m -58.3518,-32.44 20.4231,117.0058 49.5991,-87.893 z m 59.5188,-66.5435 -63.8952,61.83 80.8173,35.7672 z m -2.6258,3.6044 79.6503,47.6896 -70.0223,44.3623 z m 36.4698,-59.3346 -41.4297,59.6119 85.1936,49.0759 z m -66.8127,-28.8355 27.7171,87.3383 47.5567,-56.8392 z m 5.2517,-0.2773 -38.804,82.9021 71.7727,4.4363 z m -38.804,82.6249 3.5011,58.5028 65.9375,-51.8485 z m 37.6369,-78.4659 -145.2959,53.512 110.5766,28.8356 z m -145.0042,53.512 79.942,63.2164 36.7616,-32.9945 z m 113.786,18.2995 -38.2204,50.7395 46.0979,29.6673 z m -109.4096,-19.1312 10.5033,118.392 73.2315,-53.5121 z m 16.0467,121.9964 62.7282,18.2995 4.0846,-66.2662 z m 62.1447,-49.6303 -3.2093,71.257 49.3072,-58.7801 z m 39.6792,13.3087 -42.5968,54.6211 62.1446,73.1979 z m -116.9953,-84.8431 -23.3407,153.882 45.2226,-34.3808 z m -18.6726,152.2184 83.1513,94.5473 -35.3028,-124.7692 z m 37.0534,-32.9945 62.4364,21.3494 -15.755,111.1831 z m 58.06,14.4178 56.893,70.9797 -64.187,47.135 z m 59.8106,70.7025 -72.648,44.0851 53.1001,48.7986 z m -70.0221,44.9169 -20.4232,82.3476 79.942,-32.1627 m -82.5678,35.7672 86.0689,47.9667 -2.9176,-77.3568 z m 22.4654,-89.8339 -69.7303,40.758 53.3918,55.7302 z m -88.4029,-95.9336 19.5478,140.296 81.6925,-45.4714 z m 7.8775,6.9317 -120.2047,49.0758 139.7525,89.002 z m -109.9931,50.1849 44.6391,107.0242 93.3628,-25.7856 z m 43.4721,105.6379 -56.3095,16.3586 35.3028,96.7654 z m -0.5836,-1.3864 131.8751,31.331 -48.432,-51.294 z m 4.6682,4.7135 35.5946,58.2256 -55.726,42.1443 z m -1.7506,-5.5452 37.6369,67.3753 98.6145,-39.9261 z m 35.5946,56.0074 -21.8819,78.1887 -32.3852,-17.1904 z m -32.0935,-53.2348 -61.8528,15.5268 -5.8352,-23.2902 z m 32.9688,65.4345 13.7127,88.7247 91.904,-127.8191 z m 89.8617,-42.1443 -72.0644,128.9281 165.4273,-86.5066 z m -88.9864,35.4899 -23.9243,75.9706 53.3919,25.2311 z m -21.5902,65.9891 -154.924,71.8115 201.0219,-44.3624 z m -37.0534,-24.3994 -115.8282,92.3292 152.8816,-58.7801 z m -11.6703,-455.5459 -67.9798,239.2794 170.3871,-43.8078 z m -2.9176,6.377 120.2047,33.2718 -17.7973,163.8635 z m 48.432,-143.0686 70.3138,186.8765 136.5432,-64.6027 z m 2.6258,-6.0998 -53.6836,160.259 123.9975,26.8947 z m 6.7105,10.536 -251.4962,10.8134 189.935,134.4734 z m -236.9083,14.1406 -10.7951,-84.2885 252.955,73.1979 z m -109.1178,-112.015 102.6991,119.2238 0.2918,-92.3292 z m 127.7904,-232.07063 -102.1156,93.16093 261.7077,18.5768 z m 146.463,108.96503 -243.327,-11.6451 70.8975,159.9818 z M 1556.15,1045.25 l -50.766,139.7415 121.0799,26.6174 z m 70.6057,242.3294 -47.8485,116.7285 240.4093,34.9354 z m 175.3471,145.8413 -192.2691,151.9411 -14.8797,-179.3903 z m 1.167,-5.268 -191.6856,154.1592 131.2915,78.1887 z m -295.26,-247.5974 70.6057,230.1297 49.8907,-111.1832 z m 80.5255,220.7027 -52.2249,122.2738 77.8996,63.2163 z m 152.8816,251.4792 -30.0511,40.2033 90.1535,-26.0629 z m 170.679,-975.69483 -96.8639,4.9908 58.6435,75.6933 z m -35.5946,67.0981 -5.5434,125.0464 134.7926,-24.3993 z m 116.9953,98.9835 -123.7058,25.5084 128.3739,27.7264 z m 0.5835,50.7395 -114.6612,73.7524 -12.8374,-92.0519 z m 0.8753,3.8817 -105.9085,70.4252 71.1892,34.65813 z m -106.492,64.0482 -96.2804,95.93353 -38.2204,-125.87823 z m -14.0044,-98.7063 -122.8305,64.3254 130.1245,36.0444 z m -111.1602,63.2164 -76.7325,7.4861 109.1178,125.32373 z m -64.7704,4.7135 -61.2694,18.5767 166.0108,117.56033 z m 172.7212,-180.2221 -94.8216,-29.3901 41.7215,-41.0352 z m -92.4875,-28.8356 95.6969,154.7138 11.3786,-125.3237 z m 5.5434,-4.9908 -88.6947,127.5419 180.0152,21.3494 z m -83.1513,127.8191 68.2716,76.8024 111.4519,-52.9576 z m 4.6681,-7.2088 -16.0467,97.8744 98.031,-8.5952 z m -178.5564,56.2847 17.5055,160.53633 105.9085,-96.48823 z m 122.247,-43.2533 -49.599,41.5897 46.9732,69.5935 z m -42.0133,40.4806 -86.3606,-2.4954 125.1645,70.4253 z m 99.198,-46.5804 -58.3518,-0.5546 41.138,91.4974 z m -56.893,3.6044 -4.0846,106.747 54.8507,-23.0131 z m 66.2293,-101.4789 -13.1291,90.3883 82.8595,-114.7876 z m 3.5011,-0.2773 -68.8551,98.429 60.3941,4.4363 z m -183.8081,145.2867 -128.0822,7.4862 141.2114,154.15923 z m -37.0534,-116.4511 -93.3628,120.8874 104.7414,-53.5121 z m 36.4699,121.7192 -22.7572,-54.0666 -95.9887,51.8485 z m -37.3452,-117.283 89.5701,2.2181 -49.3073,112.015 z m 86.6524,3.3272 60.3941,71.8116 -35.011,41.0351 z m 1.7506,-0.2773 -44.0556,112.5695 69.4386,2.4954 z m -209.1911,195.749 -36.1781,240.94303 178.2646,-36.8762 z m 1.167,8.5951 186.1422,65.71183 -48.7238,131.4235 z m 23.9242,-89.002 -30.6347,90.9429 187.3092,67.37533 z m 107.9508,287.80093 -197.5207,210.7212 266.6676,11.0906 z m 7.5858,0.8318 -205.9818,211.553 18.9643,-173.0132 z m -185.8505,31.3309 -242.1598,136.137 222.612,44.0851 z m -177.9729,-161.9226 -88.4029,112.8467 274.8368,57.1166 z m -0.8753,7.4861 111.4519,-33.2718 77.6079,196.3035 z m 109.9931,-32.1627 117.8706,-52.40303 -37.9286,239.27953 z m -197.8125,141.9596 22.1737,182.4402 247.4115,-135.028 z m 516.9968,232.0706 -266.3759,-11.0906 217.3604,131.4235 z m -261.1242,-11.9224 11.6703,210.7212 207.1488,-83.1794 z m 212.6922,121.4419 1.7505,82.3477 -192.5608,8.8724 z m -1.167,3.05 81.6924,67.6526 -77.0243,16.3586 z m -171.846,-825.41723 42.8885,199.6306 100.3651,-114.2331 z m 42.0133,199.076 -116.7036,95.6564 90.1535,-3.0499 z m -189.9351,6.3771 71.7727,86.5067 122.5387,-90.6656 z m -4.3764,-0.2772 -35.8863,87.6156 119.6211,-0.8317 z m 7.294,-4.159 -108.2425,44.0851 65.9375,50.1849 z m 63.0199,94.5473 -77.6079,27.72653 70.0222,20.5175 z m 85.4854,-3.8817 h -79.942 l -12.2539,42.69873 z m -190.8103,0.8318 36.178,29.11283 77.3162,-26.61743 z m 25.9665,-90.9428 -88.4029,-62.9391 -16.3385,102.0334 z m -85.1936,-177.4495 -21.2984,101.4789 97.1557,58.5029 z m 18.3808,11.3679 105.325,17.1904 -24.216,147.5048 z m 114.3695,27.4492 -23.6325,145.2867 183.8081,-4.9908 z m 112.9107,-66.5436 -121.9552,68.7617 166.3025,140.5732 z m -70.0221,-13.8632 -46.0979,81.5158 123.9975,-70.148 z m -79.6502,-34.38094 -0.8753,121.16474 53.6836,-78.4659 z m 38.8039,-3.0499 55.726,1.3864 -6.7105,47.13504 z m 56.6012,0.2773 55.4342,51.84854 -62.1446,-9.427 z m -121.0799,-36.0444 -105.0332,107.57874 110.8684,23.013 z m -58.9353,-1.1091 -105.6167,-6.6543 14.0044,117.56024 z m -135.66792,-96.2108 -138.00192,12.7541 140.91952,106.747 z m -165.42724,47.1349 11.08683,163.30904 133.04211,-63.77094 z m 247.70326,128.09644 -125.16452,64.0482 99.78152,42.976 z m -375.2019,-59.33474 -90.44525,101.20174 109.40958,66.5435 z m 115.53652,-154.7137 -123.12225,37.1535 32.38524,71.8115 z m 2.04232,224.02994 -95.40517,97.0427 93.36285,39.3716 z"
     class="g1_9"
     id="path112"
     inkscape:connector-curvature="0"
     style="fill:none;stroke:#000000;stroke-width:13.03589439;stroke-linecap:butt;stroke-linejoin:miter;stroke-miterlimit:4" />
  <g
     clip-path="url(#c2_9)"
     id="g116"
     transform="matrix(2.917589,0,0,2.772648,-660.63405,-335.52857)">
    <path
       d="m 527,377.4 -9.5,48.4 41.7,-18.1 z"
       class="g2_9"
       id="path114"
       inkscape:connector-curvature="0"
       style="fill:none;stroke:#000000;stroke-width:4.46586227;stroke-linecap:butt;stroke-linejoin:miter;stroke-miterlimit:4" />
  </g>
  <path
     d="m 965.92178,819.00197 15.4632,58.5029 -110.28482,23.5674 z m 55.72592,-57.9483 23.049,59.6119 88.1112,-12.7542 z m 52.5166,51.0166 -79.06662,11.9224 66.81282,97.8745 z m -318.30892,12.1997 -49.59899,100.9244 180.89052,8.0407 z m -77.02434,63.7709 -61.56113,87.6157 69.43862,-22.7357 z m 79.35842,380.68453 -197.22901,150.8321 229.03074,-52.9576 z m 74.69028,104.5288 29.7594,82.625 -247.99507,-29.3901 z m 32.09348,92.3292 -204.52299,123.9374 -48.72371,-144.455 z m -7.29398,6.6544 28.00886,92.8837 -212.98399,29.9446 z m 27.71708,92.3291 -223.19554,27.172 50.76603,135.5824 z m -161.92618,161.0909 240.40934,-49.0759 -35.3028,-52.1258 z m 157.84157,-168.0225 -174.76359,170.7951 219.11096,-100.3698 z m 135.66789,183.272 -113.20244,217.3756 249.45384,-130.869 z m 139.169,87.893 -128.0822,227.3571 -118.74582,-89.2793 z m -3.5011,-6.0999 15.755,216.8211 -138.5855,19.963 z m 21.0066,218.2074 2.9176,68.7617 -137.1267,-50.185 z m -11.9621,-208.5031 121.9552,51.294 -115.2447,156.1001 z m 125.1646,43.2533 -0.5835,179.113 -113.4943,-13.5859 z m -113.786,162.7544 15.4632,72.6434 108.5344,-55.1757 z m 105.0332,-154.4365 120.7882,39.6489 -110.5766,136.6915 z m 10.7951,167.7452 123.9975,102.3107 -226.1131,-36.8762 z m 106.492,-125.8782 26.2583,229.298 -119.3294,-99.2608 z m 2.9176,-6.6543 82.5677,75.1387 -58.9353,160.8136 z m 79.6501,71.5343 -59.8105,158.5954 105.6167,-107.0242 z m 39.6793,52.1258 31.8017,55.4529 -124.5811,52.9576 z m 21.0066,57.9483 29.7594,52.403 -147.63,2.4954 z m 4.3764,-3.8817 81.6925,-14.9723 -53.1001,67.9299 z m -13.1292,-55.7302 96.864,31.3309 -76.4408,27.7265 z M 962.71248,1670.7593 793.78405,1840.4454 724.05369,1730.6485 Z m 1.4588,2.2182 52.51652,67.6526 -217.94385,103.9742 z m 53.97532,71.8116 -222.32025,96.7654 105.03321,122.551 z m 566.0123,153.3273 -111.7437,88.4475 173.013,-13.8632 z m 60.3941,67.0981 -173.3048,23.2903 55.7259,62.3845 z m 0.2917,-3.0499 -121.6634,83.1794 54.5589,20.5176 z m 2.6259,1.9409 -17.5056,110.0741 -41.4297,-17.1904 z m -7.0023,0.5545 68.8552,-0.8318 -86.9442,117.5603 z M 141.1194,839.51957 l 193.72792,81.7931 5.25163,-123.1056 z m 267.54291,-1.9408 30.92644,76.8023 -32.38522,46.8577 z m 169.22016,-25.5085 88.11119,-5.5452 -55.72595,81.5158 z m -16.33851,-217.37554 -46.6814,136.41434 92.48753,-3.6045 z m -142.37835,131.70084 101.82386,34.658 -54.55888,98.429 z m -215.31805,-88.17024 94.52991,132.80984 56.30944,-130.31454 z m -70.8974,10.536 -102.69913,175.23134 202.77245,-46.3032 z m 135.95964,-323.8452 52.80836,106.1924 -135.95963,4.9908 z m 103.57439,199.3534 146.46296,9.427 -101.82382,103.1425 z m 271.62755,-19.6858 -113.20247,59.0573 146.17122,13.8633 z m -368.78325,439.74194 -31.80171,131.14623 232.8236,-45.4714 z M 571.46377,1087.117 585.17645,1276.2116 346.51766,1133.143 Z m -305.76332,74.307 4.37637,129.7599 227.57196,4.4362 z"
     class="g1_9"
     id="path118"
     inkscape:connector-curvature="0"
     style="fill:none;stroke:#000000;stroke-width:13.03589439;stroke-linecap:butt;stroke-linejoin:miter;stroke-miterlimit:4" />
  <g
     clip-path="url(#c3_9)"
     id="g122"
     transform="matrix(2.917589,0,0,2.772648,-660.63405,-335.52857)">
    <path
       d="m 366.7,604.6 23,60 55.8,-70.9 z"
       class="g3_9"
       id="path120"
       inkscape:connector-curvature="0"
       style="fill:none;stroke:#000000;stroke-width:4.4831419;stroke-linecap:butt;stroke-linejoin:miter;stroke-miterlimit:4" />
  </g>
  <path
     d="m 546.08076,871.68227 -72.35622,19.1313 18.96435,27.4492 z m 114.36947,141.68233 49.30724,19.6858 v -57.11663 z m 54.26718,-41.58973 80.52543,76.24783 -72.64797,-15.5268 z m 253.24667,112.84673 -70.89739,30.4992 -3.50108,-42.6988 z m -93.36284,-33.2717 -57.18473,37.1534 68.85512,25.5084 z m -107.36725,-6.6544 -12.25387,41.3125 66.52103,-23.5675 z m -276.29567,-127.26453 -36.76163,50.4622 43.76383,16.0813 z m 1621.59598,351.01723 -8.1694,36.5989 111.452,-30.2219 z M 785.61478,962.62507 l 4.66817,73.19793 182.93283,-61.27553 z m 208.6076,-63.7708 14.29622,133.91883 -125.74807,-109.51963 z"
     class="g1_9"
     id="path124"
     inkscape:connector-curvature="0"
     style="fill:none;stroke:#000000;stroke-width:13.03589439;stroke-linecap:butt;stroke-linejoin:miter;stroke-miterlimit:4" />
  <g
     clip-path="url(#c4_9)"
     id="g128"
     transform="matrix(2.917589,0,0,2.772648,-660.63405,-335.52857)">
    <path
       d="M 590.9,472.1 600.5,450.8 567,434.3 Z"
       class="g4_9"
       id="path126"
       inkscape:connector-curvature="0"
       style="fill:none;stroke:#000000;stroke-width:4.00862932;stroke-linecap:butt;stroke-linejoin:miter;stroke-miterlimit:4" />
  </g>
  <path
     d="m 1128.7233,1021.4053 -64.187,60.721 94.2381,-27.172 z m -55.4343,51.294 -1.4587,97.0426 88.1111,-114.5104 z m 2.3341,-0.2773 -113.78592,31.8855 52.22482,61.5527 z m -2.9176,4.7135 -58.06,84.5657 63.6035,7.7634 z m -54.5589,81.7931 7.0022,102.3107 55.1425,-93.9927 z m 52.2249,15.2495 -42.0133,84.0113 56.3094,99.8153 z m -44.3474,-15.5268 -51.93302,49.9077 51.34952,53.5121 z m 286.799,232.3479 -118.1623,87.8929 75.8573,114.2331 z m -44.3473,192.4217 65.6457,19.6858 -20.4231,-215.9892 z m 273.0863,12.1997 -44.6391,59.6119 81.9842,-0.8318 z m 74.6903,-15.8041 -75.2738,17.1904 39.0957,61.5528 z m -2.3341,3.6044 38.8039,74.307 -63.0199,2.7727 z m -2.6258,-1.9408 135.6679,74.8615 -93.6546,8.3179 z m 35.8863,71.2571 39.3875,110.074 37.6368,-70.148 z m 4.6681,5.8225 86.3607,-3.8817 -16.6303,36.0444 z m -557.2594,-307.2094 97.1557,123.1056 116.7035,-76.5251 z m -68.5634,-92.3291 -14.2962,107.856 88.403,-13.0315 z m 72.3562,90.111 -18.9643,97.5972 121.0799,29.9446 z m 205.6901,300.555 9.628,112.8468 63.0199,-109.2423 z m 72.3561,4.159 63.02,56.2847 -114.3695,50.185 z m -0.5835,1.109 123.1223,2.7727 -57.1848,56.0075 z m 114.3695,3.6045 80.8172,89.002 -88.1111,-16.0814 z m 9.0445,2.2181 -57.1847,49.9077 47.5567,21.9039 z m -228.4472,-72.9206 30.0512,60.721 51.3496,-45.7487 z m 112.9107,67.098 -37.0534,-56.2847 -33.844,46.3032 z m 109.4096,-2.218 -145.2959,-51.8486 187.6009,0.5545 z m -139.7525,-48.7987 30.0512,52.1258 122.8305,7.4862 z m 137.1267,53.2349 79.6502,92.0519 18.6725,-89.8338 z m 96.864,6.0998 100.6567,104.2515 -109.4095,-12.4769 z m 69.4385,-1.3863 -74.1067,-3.3272 105.6167,116.4512 z m 60.3941,24.3993 59.5189,72.9206 -59.8106,58.7801 z m 80.8173,-19.1313 -80.8173,19.6858 60.6859,82.3476 z m -1.1671,-1.9408 45.2226,103.1425 -62.1446,-5.5454 z m -54.2671,-14.4178 -17.5056,42.1442 78.4832,-25.7856 z m -664.6268,-204.0669 114.6613,108.1333 4.3763,-83.734 z m 114.6613,25.2311 1.4588,78.1887 79.0666,42.4215 z m -112.619,-23.8448 -138.58552,-10.2587 65.64582,109.2423 z m 1.7506,-4.4362 -75.8573,102.0334 102.1156,-37.1535 z m 1.167,7.7634 21.5902,58.7801 98.9062,57.1166 z m 27.7171,59.612 -20.4231,105.3605 -45.8062,-35.7671 z m -104.7414,34.9353 40.8462,36.3217 51.6413,-69.0389 z m 0.2917,-6.9316 -42.59672,54.6211 91.32042,-10.2588 z m -50.18252,61.83 84.90182,23.5675 11.9621,-34.1035 z m 2.6258,-3.3272 -41.138,-49.0758 84.02662,-6.3771 z m -1.167,-1.6635 3.5011,59.8892 86.94412,-28.2811 z m 4.9599,72.9206 -36.7616,-45.7487 36.7616,-38.5398 z m -38.8039,-117.5603 -1.4588,75.4161 46.3897,-36.8763 z m 5.8351,-6.0998 -48.43193,17.1904 41.72153,61.2755 z m -68.56329,-79.575 25.09128,93.4383 51.93311,-18.5768 z m 75.85729,-29.9446 7.0022,108.6878 67.39632,-5.5453 z m 5.5434,0.8318 -80.23367,28.8356 81.69247,86.7838 z m 540.62932,291.4053 9.628,110.9059 77.0243,-36.8762 z m 94.5298,23.5675 -91.904,-24.3993 80.2336,82.6249 z m -13.4209,52.1258 -31.8017,90.111 -37.9286,-54.3439 z m 19.5479,-54.3439 -20.7149,54.3439 135.0843,-34.6581 z m -139.169,-34.1036 -72.3562,99.2608 -50.7661,-47.6895 z m -69.1469,101.4789 112.9107,-78.1886 -42.0133,-21.6267 z m -1.7505,1.1091 124.8728,23.0129 -10.5034,-106.7469 z m 120.4964,17.1904 -96.864,89.8338 -21.5901,-107.0242 z m -353.0283,-217.9301 97.1557,100.0926 36.1781,-129.76 z m 50.7661,-67.6526 -53.9754,69.0389 136.5431,-33.2718 z m -85.4854,-41.3124 33.5523,114.233 53.6836,-69.5935 z m -16.922,105.6378 50.1825,1.9408 -29.7594,-100.6471 z m 1.167,5.268 -49.599,11.9224 11.9621,-35.7671 z m -45.8061,10.5361 12.2539,77.0796 80.5254,-22.4584 z m 78.4831,50.7394 23.3407,-63.2163 -89.8617,14.9723 z m 0,-1.3863 77.0244,5.8226 -53.9754,-58.2256 z m 5.8352,2.2181 34.7193,76.2479 50.1825,-67.3754 z m 3.2094,4.159 -70.8974,21.6266 106.2002,65.9891 z m -72.3563,21.3494 -106.20022,-40.2034 93.36282,-32.1627 z m 7.5858,-2.2181 -49.3073,38.5398 -48.72372,-72.0889 z m -4.9599,4.4362 91.3205,115.8967 -132.7503,-78.7432 z m -4.6681,-9.427 121.6634,84.5658 -22.1737,51.8485 z m 432.9701,136.9688 41.1381,62.3846 -132.1668,25.7856 z m 43.1804,62.6619 -62.1447,86.2293 -63.3116,-59.6119 z m 32.3852,-93.9928 34.1358,57.3938 -64.187,31.8855 z m 16.3385,98.7063 -47.8485,-11.0906 -53.9754,92.6064 z m -45.5144,-10.2589 64.7705,-27.4492 -11.6704,47.1351 z m -297.8858,-177.1721 66.521,-62.3846 -27.1336,-59.8892 z m 451.351,54.0666 -85.1936,93.7155 -37.3451,-63.4937 z m -14.0045,-0.8318 42.5969,51.8485 4.9598,-136.137 z m 8.1693,3.3272 -9.9198,123.9373 -59.8106,-31.3309 z m -2.6259,0.8318 39.9711,43.8078 -49.0155,79.8523 z m -93.6545,134.4734 86.0688,-16.0814 -70.6056,-26.8947 z m 191.102,-147.5049 -63.8951,58.7802 105.6167,63.2163 z m -55.4342,63.2164 -50.766,73.1979 150.2558,-19.1313 z m -45.8061,67.9299 27.4253,66.8208 120.4965,-78.466 z m 0,6.6543 -40.8462,67.3754 77.316,-4.159 z m 2.6258,-0.8318 -90.1535,13.8633 51.9331,59.8892 z m -470.607,-883.6428 -55.726,44.0851 119.0376,-21.0721 z m 1.4587,1.3864 -39.6792,-31.60823 -20.4231,82.62493 z m -33.2605,-30.77643 -54.5589,32.71723 31.8017,42.1443 z m -144.4206,-14.1405 -93.65462,133.36433 -73.52325,-66.5435 z m 78.1913,-29.9446 -40.8462,131.42353 61.2694,-56.8393 z m 6.127,-3.05 58.6435,49.6304 -42.8885,39.09443 z m -82.276,28.8356 18.089,107.30153 58.06,-150.83213 z m 18.089,8.5952 -83.15122,132.25533 104.44962,-36.0444 z m -361.19747,74.58423 116.99533,45.7487 -42.30506,74.5842 z m -130.12445,-138.63243 11.96207,186.87653 72.06446,-66.2663 z m 341.06613,227.35713 113.49419,33.549 -46.38962,-56.0074 z m -43.47208,-4.4362 -40.2627,76.5251 152.58985,-46.8578 z m -179.13995,-9.9815 6.41869,146.3957 -75.2738,-81.793 z m 118.16233,51.0167 54.55895,135.0279 -47.5567,9.427 z m -100.94856,0.2773 34.13577,113.124 56.30949,-24.1221 z m 150.54757,42.1442 78.19136,26.6174 -29.17585,114.7876 z m 32.677,-2.4954 136.25138,-47.135 -41.42972,44.6396 z m -9.04451,-1.109 108.53427,3.6044 -18.3808,32.7172 z m 107.07547,-1.6636 46.38972,48.5213 -63.89522,-12.4769 z m -13.4209,29.39 40.84622,126.71 25.9666,-107.3015 z m -2.6258,3.8817 -30.0512,118.6693 79.65022,14.9723 z m -122.53872,143.0686 102.11562,48.7987 -80.23371,33.2717 z m 11.37859,-54.0666 53.97543,78.7432 -93.94641,-47.4123 z m 34.42756,27.172 54.55887,-8.5952 8.1693,94.27 z m 50.18247,-4.159 79.35842,19.1313 -69.73032,69.8707 z m 154.63222,-8.5952 -80.5254,20.7948 68.2716,86.7839 z m -83.1512,24.6765 -54.85072,65.1573 m 56.89292,-65.4345 -56.01762,69.3162 127.20682,10.536 z m 188.1845,312.2001 48.432,32.1627 -85.4853,39.9262 z m 36.4699,31.6082 85.7771,41.5897 -9.9198,-97.5972 z m 138.002,100.6471 -97.4475,59.6119 124.581,54.6212 z m -53.9754,-59.6119 -42.8886,126.71 95.9887,-69.0389 z m -77.8997,-44.6397 34.7194,170.7951 49.0154,-127.2645 z m 0.2918,5.8226 -56.0177,63.4937 -21.5902,-22.1812 z m -53.6836,60.9983 -26.8418,48.7986 121.0799,55.4529 z m 54.8506,-68.2072 -54.2671,67.0981 97.4475,112.2922 z m 253.8303,-1035.58393 9.9198,108.4105 81.6925,-62.9391 z m 80.8172,37.708 16.922,79.8523 -80.8172,-19.1313 z m 4.3764,4.9908 70.3138,82.3476 -59.5188,-2.2181 z m 9.628,71.8116 54.8507,63.4936 19.8396,-44.0851 z m 48.1402,-89.5566 -57.7682,25.2311 82.8595,88.7248 z m 5.2517,-1.3863 74.6903,44.9169 -48.7238,67.3753 z m 64.4787,-45.74874 -68.8551,47.41234 77.3161,47.1351 z m -1.4588,-1.3863 79.6502,71.25714 -60.9776,25.7856 z m -0.8753,-1.3863 116.7036,31.33094 -43.1803,51.294 z m 7.8775,0.8318 75.8573,-78.7432 35.5946,115.06494 z m 79.942,-83.1794 80.8172,26.3401 -52.2249,84.01124 z m 59.8105,-53.7894 -61.5611,53.5121 91.0288,29.6673 z m 2.6259,-1.9408 86.0689,2.2181 -65.3541,75.9705 z m 33.2605,-87.3384 -38.5122,85.952 h 104.4497 z m 63.8952,75.1387 15.4632,-83.1794 -77.0244,4.4362 z m -47.8485,-188.54 -18.6725,106.1924 h 92.4875 z m 3.2094,2.7726 h 65.0622 l 2.0423,97.8745 z m 21.2984,-70.4252 -33.8441,65.7117 85.4854,2.4954 z m -75.2738,-43.2533 76.4408,39.9261 -29.1759,55.7302 z m -3.7929,-3.6045 -36.7616,-52.1258 75.8573,45.4715 z m 47.8485,-6.0998 -47.8485,6.6544 86.0689,51.5712 z m -52.2249,4.4362 -87.8194,-49.0758 62.1446,0.2772 z m -27.4253,-53.7893 -102.9909,-11.3679 35.8863,18.2995 z m -101.8239,-12.4769 -66.2293,8.3179 108.2426,22.1812 z m -505.0346,99.2607 -25.9665,171.9042 67.9798,-26.8947 z m 40.5545,144.455 19.2561,84.5657 -83.4431,-53.7893 z m -69.7304,24.9538 35.0111,86.7839 53.9754,-32.44 z m 89.8617,49.9077 -55.4342,34.9353 95.4052,23.5676 z m -54.8506,36.5989 37.9286,97.8745 66.2293,-78.4659 z m 101.2403,17.1905 -16.3385,88.1701 -42.0133,-9.1497 z m -4.0846,4.1589 54.2671,49.9076 -63.3116,33.5491 z m 183.5163,-49.3531 50.4743,133.6416 8.7528,-133.0871 z m -4.3764,-7.2089 71.1892,-37.4308 -2.9176,53.2349 z m 80.2337,-40.7579 23.9243,105.6379 -37.9287,-50.185 z m 26.8418,97.0427 -52.2248,74.3069 15.755,-112.2922 z m -1.7505,-3.8817 17.5055,90.3883 -60.6858,-13.0315 z m -44.6391,73.7524 11.3786,70.4252 55.1424,-59.8892 z m 66.2292,11.3678 3.7929,95.93364 -49.8907,-38.81714 z m -55.1424,49.0759 17.5055,89.83384 66.2293,-27.172 z m -17.2137,-67.0981 -44.3474,106.46974 74.1068,-30.22194 z m -48.1403,105.36064 73.5233,-25.78564 14.5879,82.34764 z m -128.9574,-121.16474 -33.5523,65.7118 -27.4253,-22.4585 z m 3.2093,0.8318 -2.6258,80.4068 -26.8418,-19.1313 z m -6.4186,1.1091 55.4342,34.9353 -42.5968,51.0167 z m 56.0177,29.39 28.8841,65.9891 -63.3117,-14.4178 z"
     class="g1_9"
     id="path130"
     inkscape:connector-curvature="0"
     style="fill:none;stroke:#000000;stroke-width:13.03589439;stroke-linecap:butt;stroke-linejoin:miter;stroke-miterlimit:4" />
  <g
     clip-path="url(#c5_9)"
     id="g134"
     transform="matrix(2.917589,0,0,2.772648,-660.63405,-335.52857)">
    <path
       d="m 533.1,228.3 8.3,12.8 -21.5,47.3 z"
       class="g5_9"
       id="path132"
       inkscape:connector-curvature="0"
       style="fill:none;stroke:#000000;stroke-width:4.34811687;stroke-linecap:butt;stroke-linejoin:miter;stroke-miterlimit:4" />
  </g>
  <path
     d="m 1005.601,240.35033 12.8374,161.0909 -21.29842,-23.5675 z m -17.79732,128.3736 17.50562,110.3514 43.1803,-34.3808 z m 56.01772,81.7931 52.2248,42.9761 -94.8216,-11.0906 z m -40.8462,24.9538 47.2649,60.9983 53.6836,-41.0352 z m 97.1557,16.636 -54.8507,41.0351 92.1958,43.8078 z m 3.2093,-0.2773 74.6903,60.9982 -35.0111,22.1812 z m 38.804,79.8522 83.1512,53.7894 -39.9709,-69.3162 z m 42.8885,-17.7449 79.0667,27.4492 -44.0556,44.9169 z m 81.4008,25.7856 -14.2963,63.2164 -23.0489,-17.745 z m -3.5012,3.8817 48.7238,9.7043 -53.6837,56.2847 z m 6.4188,53.7894 81.6924,-18.2995 -41.138,-19.9631 z m 32.6769,1.6636 55.726,47.41224 -1.4588,-62.10734 z m 91.9041,-1.6636 -34.4276,53.78934 3.7929,-65.98904 z m 0.2917,0 67.9799,19.13124 -96.5722,45.4715 z m -20.7148,54.06664 88.9864,-42.42154 48.432,28.28104 z m 78.4831,-42.42154 h 60.6859 v 36.32174 z"
     class="g1_9"
     id="path136"
     inkscape:connector-curvature="0"
     style="fill:none;stroke:#000000;stroke-width:13.03589439;stroke-linecap:butt;stroke-linejoin:miter;stroke-miterlimit:4" />
  <defs
     id="defs159">
    <path
       d="M 380,0 V 984 H 18 v 97 H 853 V 984 H 491 V 0 Z"
       id="f0_8"
       transform="matrix(0.001,0,0,-0.001,0,0)"
       inkscape:connector-curvature="0" />
    <path
       d="m 650,70 c 0,0 104,0 187,39 0,0 83,38 141,102 0,0 58,64 89,150 0,0 30,85 30,180 0,0 0,95 -30,180 0,0 -31,86 -89,151 0,0 -58,65 -141,103 0,0 -83,38 -187,38 0,0 -104,0 -187,-38 0,0 -83,-38 -142,-103 0,0 -58,-65 -88,-151 0,0 -31,-85 -31,-180 0,0 0,-95 31,-180 0,0 30,-86 88,-150 0,0 59,-64 142,-102 0,0 83,-39 187,-39 z m 0,-96 c 0,0 -121,0 -224,41 0,0 -103,43 -179,119 0,0 -75,75 -118,179 0,0 -43,104 -43,228 0,0 0,123 43,227 0,0 43,104 118,180 0,0 76,75 179,118 0,0 103,43 224,43 0,0 120,0 224,-43 0,0 103,-43 178,-118 0,0 76,-76 119,-180 0,0 42,-104 42,-227 0,0 0,-124 -42,-228 0,0 -43,-104 -119,-179 0,0 -75,-76 -178,-119 0,0 -104,-41 -224,-41 z"
       id="f0_7"
       transform="matrix(0.001,0,0,-0.001,0,0)"
       inkscape:connector-curvature="0" />
    <path
       d="M 144,0 V 1081 H 312 L 679,186 h 1 l 362,895 h 168 V 0 h -110 v 939 h -3 L 706,0 H 648 L 257,939 h -3 V 0 Z"
       id="f0_6"
       transform="matrix(0.001,0,0,-0.001,0,0)"
       inkscape:connector-curvature="0" />
    <path
       d="M 772,385 533,960 295,385 Z M 15,0 483,1081 H 590 L 1054,0 H 932 L 813,285 H 254 L 136,0 Z"
       id="f0_3"
       transform="matrix(0.001,0,0,-0.001,0,0)"
       inkscape:connector-curvature="0" />
    <path
       d="m 682,413 c 0,0 -4,100 -64,167 0,0 -60,66 -172,66 0,0 -51,0 -96,-19 0,0 -44,-19 -77,-52 0,0 -34,-33 -54,-75 0,0 -19,-42 -22,-87 z M 455,-18 c 0,0 -79,0 -147,28 0,0 -68,28 -117,78 0,0 -48,51 -77,120 0,0 -28,68 -28,149 0,0 0,81 28,150 0,0 27,69 76,119 0,0 49,51 114,79 0,0 66,28 142,28 0,0 84,0 148,-28 0,0 64,-28 107,-76 0,0 43,-48 65,-112 0,0 22,-64 22,-138 0,0 0,-10 0,-23 0,0 0,-12 -2,-25 H 195 c 0,0 1,-54 21,-101 0,0 20,-48 55,-83 0,0 35,-35 82,-56 0,0 48,-21 103,-21 0,0 80,0 139,38 0,0 59,37 89,86 l 78,-61 c 0,0 -64,-81 -141,-116 0,0 -77,-35 -166,-35 z"
       id="f0_c"
       transform="matrix(0.001,0,0,-0.001,0,0)"
       inkscape:connector-curvature="0" />
    <path
       d="m 467,70 c 0,0 60,0 110,23 0,0 50,22 87,60 0,0 37,38 57,91 0,0 21,52 21,114 0,0 0,61 -21,113 0,0 -20,53 -57,92 0,0 -37,39 -87,61 0,0 -50,22 -110,22 0,0 -64,0 -115,-23 0,0 -50,-23 -84,-61 0,0 -35,-39 -53,-92 0,0 -18,-53 -18,-112 0,0 0,-60 18,-113 0,0 18,-52 53,-91 0,0 34,-39 84,-61 0,0 51,-23 115,-23 z m -12,-88 c 0,0 -84,0 -151,28 0,0 -68,29 -116,80 0,0 -49,50 -75,119 0,0 -27,69 -27,148 0,0 0,80 27,149 0,0 26,68 75,119 0,0 48,50 116,79 0,0 67,29 151,29 0,0 78,0 151,-36 0,0 74,-36 120,-106 h 2 v 564 H 832 V 0 H 728 v 121 h -2 c 0,0 -46,-69 -120,-104 0,0 -73,-35 -151,-35 z"
       id="f0_b"
       transform="matrix(0.001,0,0,-0.001,0,0)"
       inkscape:connector-curvature="0" />
    <path
       d="M 139,0 V 715 H 242 V 0 Z m 52,917 c 0,0 -28,0 -51,21 0,0 -23,20 -23,52 0,0 0,33 23,53 0,0 23,21 51,21 0,0 27,0 50,-21 0,0 23,-20 23,-53 0,0 0,-32 -23,-52 0,0 -23,-21 -50,-21 z"
       id="f0_f"
       transform="matrix(0.001,0,0,-0.001,0,0)"
       inkscape:connector-curvature="0" />
    <path
       d="m 468,-18 c 0,0 -88,0 -158,28 0,0 -70,28 -120,78 0,0 -50,51 -77,120 0,0 -28,68 -28,149 0,0 0,81 28,150 0,0 27,69 77,119 0,0 50,51 120,79 0,0 70,28 158,28 0,0 71,0 145,-31 0,0 75,-31 120,-92 l -81,-58 c 0,0 -26,41 -75,68 0,0 -50,26 -108,26 0,0 -63,0 -113,-22 0,0 -50,-22 -86,-61 0,0 -36,-39 -55,-92 0,0 -19,-52 -19,-113 0,0 0,-62 19,-113 0,0 19,-52 54,-91 0,0 35,-39 85,-61 0,0 51,-23 114,-23 0,0 68,0 116,26 0,0 47,26 78,68 l 77,-58 c 0,0 -45,-57 -112,-91 0,0 -66,-33 -159,-33 z"
       id="f0_a"
       transform="matrix(0.001,0,0,-0.001,0,0)"
       inkscape:connector-curvature="0" />
    <path
       d="m 359,67 c 0,0 55,0 98,19 0,0 43,19 72,52 0,0 29,33 44,76 0,0 16,43 16,90 v 54 h -31 c 0,0 -64,0 -129,-5 0,0 -65,-6 -118,-22 0,0 -53,-16 -87,-47 0,0 -33,-30 -33,-81 0,0 0,-38 14,-64 0,0 15,-26 39,-43 0,0 25,-16 55,-23 0,0 29,-6 60,-6 z m -27,-85 c 0,0 -42,0 -85,12 0,0 -44,10 -80,36 0,0 -36,26 -59,68 0,0 -24,41 -24,101 0,0 0,82 42,131 0,0 42,48 113,72 0,0 70,23 161,30 0,0 91,7 189,7 v 23 c 0,0 0,93 -49,139 0,0 -49,45 -143,45 0,0 -64,0 -119,-23 0,0 -55,-23 -93,-61 l -58,69 c 0,0 44,44 117,73 0,0 72,29 164,29 0,0 58,0 109,-16 0,0 50,-16 88,-48 0,0 39,-32 60,-81 0,0 21,-49 21,-114 V 160 c 0,0 0,-41 3,-85 0,0 4,-44 10,-75 h -94 c 0,0 -4,26 -7,56 0,0 -4,31 -4,60 h -2 c 0,0 -49,-72 -111,-103 0,0 -62,-31 -149,-31 z"
       id="f0_9"
       transform="matrix(0.001,0,0,-0.001,0,0)"
       inkscape:connector-curvature="0" />
    <path
       d="M 141,0 V 1155 H 244 V 0 Z"
       id="f0_g"
       transform="matrix(0.001,0,0,-0.001,0,0)"
       inkscape:connector-curvature="0" />
    <path
       d="M 144,0 V 1081 H 254 V 0 Z"
       id="f0_5"
       transform="matrix(0.001,0,0,-0.001,0,0)"
       inkscape:connector-curvature="0" />
    <path
       d="m 138,0 v 558 c 0,0 0,29 -2,75 0,0 -1,45 -4,82 h 99 c 0,0 3,-29 4,-64 0,0 2,-35 2,-58 h 3 c 0,0 30,62 94,101 0,0 63,39 141,39 0,0 29,0 60,-6 0,0 32,-6 61,-23 0,0 30,-18 55,-47 0,0 26,-29 44,-75 0,0 37,73 100,112 0,0 63,39 150,39 0,0 136,0 204,-81 0,0 68,-81 68,-214 V 0 h -103 v 396 c 0,0 0,113 -42,182 0,0 -42,68 -143,68 0,0 -57,0 -96,-23 0,0 -39,-23 -62,-60 0,0 -24,-37 -35,-85 0,0 -10,-47 -10,-98 V 0 H 622 v 417 c 0,0 0,52 -8,95 0,0 -7,43 -27,72 0,0 -19,30 -52,46 0,0 -34,16 -86,16 0,0 -36,0 -74,-16 0,0 -37,-17 -67,-52 0,0 -30,-34 -48,-87 0,0 -18,-52 -18,-124 V 0 Z"
       id="f0_h"
       transform="matrix(0.001,0,0,-0.001,0,0)"
       inkscape:connector-curvature="0" />
    <path
       d="m 467,89 c 0,0 60,0 110,20 0,0 50,20 87,56 0,0 37,37 57,88 0,0 21,51 21,114 0,0 0,56 -21,107 0,0 -20,50 -57,88 0,0 -37,39 -87,61 0,0 -50,23 -110,23 0,0 -64,0 -115,-23 0,0 -50,-22 -84,-61 0,0 -35,-38 -53,-88 0,0 -18,-51 -18,-107 0,0 0,-57 18,-107 0,0 18,-50 53,-89 0,0 34,-38 84,-60 0,0 51,-22 115,-22 z m -23,-455 c 0,0 -99,0 -189,39 0,0 -90,38 -154,105 l 74,80 c 0,0 43,-55 117,-94 0,0 74,-38 157,-38 0,0 76,0 130,22 0,0 53,22 86,61 0,0 33,38 48,89 0,0 15,51 15,108 v 135 h -2 c 0,0 -42,-68 -117,-104 0,0 -76,-37 -154,-37 0,0 -84,0 -151,28 0,0 -68,27 -116,75 0,0 -49,48 -75,115 0,0 -27,68 -27,146 0,0 0,76 27,143 0,0 26,67 75,118 0,0 48,50 116,79 0,0 67,29 151,29 0,0 78,0 153,-36 0,0 75,-37 118,-106 h 2 V 715 H 832 V 6 c 0,0 0,-57 -16,-123 0,0 -16,-65 -59,-120 0,0 -44,-55 -119,-92 0,0 -75,-37 -194,-37 z"
       id="f0_d"
       transform="matrix(0.001,0,0,-0.001,0,0)"
       inkscape:connector-curvature="0" />
    <path
       d="m 138,0 v 558 c 0,0 0,29 -2,75 0,0 -1,45 -4,82 h 99 c 0,0 3,-29 4,-64 0,0 2,-35 2,-58 h 3 c 0,0 30,62 99,101 0,0 69,39 145,39 0,0 136,0 204,-81 0,0 68,-81 68,-214 V 0 H 652 v 396 c 0,0 0,56 -9,102 0,0 -9,46 -31,79 0,0 -22,33 -60,51 0,0 -37,18 -94,18 0,0 -41,0 -80,-16 0,0 -39,-17 -69,-52 0,0 -31,-34 -49,-87 0,0 -18,-52 -18,-124 V 0 Z"
       id="f0_i"
       transform="matrix(0.001,0,0,-0.001,0,0)"
       inkscape:connector-curvature="0" />
    <path
       d="m 141,-366 c 0,0 -48,0 -94,9 l 11,95 c 0,0 37,-12 76,-12 0,0 54,0 84,33 0,0 31,33 54,94 L 330,2 24,715 H 141 L 383,112 h 4 L 608,715 H 721 L 365,-184 c 0,0 -32,-82 -82,-132 0,0 -49,-50 -142,-50 z"
       id="f0_n"
       transform="matrix(0.001,0,0,-0.001,0,0)"
       inkscape:connector-curvature="0" />
    <path
       d="m 341,-18 c 0,0 -81,0 -157,33 0,0 -77,34 -126,106 l 83,61 c 0,0 27,-47 81,-80 0,0 53,-32 117,-32 0,0 34,0 65,7 0,0 30,6 53,21 0,0 23,15 37,39 0,0 13,24 13,59 0,0 0,56 -54,84 0,0 -54,29 -156,53 0,0 -32,8 -68,19 0,0 -36,12 -67,34 0,0 -30,22 -50,56 0,0 -20,33 -20,84 0,0 0,55 21,94 0,0 22,38 58,64 0,0 36,25 81,37 0,0 46,12 95,12 0,0 75,0 145,-33 0,0 71,-34 106,-95 l -80,-60 c 0,0 -23,45 -69,73 0,0 -47,28 -106,28 0,0 -28,0 -55,-6 0,0 -28,-6 -49,-20 0,0 -21,-13 -34,-35 0,0 -13,-21 -13,-50 0,0 0,-51 41,-77 0,0 41,-27 130,-46 0,0 126,-26 187,-75 0,0 60,-50 60,-134 0,0 0,-61 -24,-103 0,0 -23,-42 -62,-69 0,0 -38,-27 -86,-37 0,0 -48,-12 -97,-12 z"
       id="f0_k"
       transform="matrix(0.001,0,0,-0.001,0,0)"
       inkscape:connector-curvature="0" />
    <path
       d="m 338,-8 c 0,0 -29,0 -62,8 0,0 -32,6 -59,28 0,0 -27,21 -45,58 0,0 -17,36 -17,96 V 628 H 6 v 87 H 155 V 916 H 258 V 715 H 460 V 628 H 258 V 211 c 0,0 0,-39 8,-65 0,0 7,-26 22,-41 0,0 14,-14 34,-19 0,0 20,-6 43,-6 0,0 21,0 45,6 0,0 24,6 45,17 l 5,-90 c 0,0 -28,-11 -57,-15 0,0 -30,-6 -65,-6 z"
       id="f0_l"
       transform="matrix(0.001,0,0,-0.001,0,0)"
       inkscape:connector-curvature="0" />
    <path
       d="M 141,0 V 1155 H 244 V 597 h 3 c 0,0 29,63 97,100 0,0 67,36 143,36 0,0 136,0 204,-81 0,0 68,-81 68,-214 V 0 H 655 v 396 c 0,0 0,56 -9,102 0,0 -9,46 -31,79 0,0 -22,33 -60,51 0,0 -37,18 -94,18 0,0 -41,0 -80,-16 0,0 -39,-17 -69,-52 0,0 -31,-34 -49,-87 0,0 -19,-52 -19,-124 V 0 Z"
       id="f0_e"
       transform="matrix(0.001,0,0,-0.001,0,0)"
       inkscape:connector-curvature="0" />
    <path
       d="m 649,-26 c 0,0 -122,0 -226,41 0,0 -104,43 -179,119 0,0 -75,75 -117,179 0,0 -42,104 -42,228 0,0 0,123 43,227 0,0 43,104 118,180 0,0 76,75 179,118 0,0 103,43 224,43 0,0 60,0 117,-12 0,0 57,-13 108,-35 0,0 50,-22 91,-53 0,0 42,-31 69,-71 l -92,-67 c 0,0 -16,26 -45,52 0,0 -28,26 -66,46 0,0 -38,20 -83,32 0,0 -45,12 -97,12 0,0 -106,0 -189,-38 0,0 -83,-38 -141,-103 0,0 -58,-65 -89,-151 0,0 -31,-86 -31,-180 0,0 0,-95 32,-181 0,0 31,-85 89,-150 0,0 58,-65 141,-103 0,0 84,-39 188,-39 0,0 93,0 177,39 0,0 84,38 140,122 l 86,-55 c 0,0 -28,-41 -67,-78 0,0 -38,-37 -90,-64 0,0 -51,-27 -113,-42 0,0 -62,-16 -135,-16 z"
       id="f0_4"
       transform="matrix(0.001,0,0,-0.001,0,0)"
       inkscape:connector-curvature="0" />
    <path
       d="m 467,70 c 0,0 62,0 113,23 0,0 50,22 85,61 0,0 35,39 54,91 0,0 19,53 19,113 0,0 0,59 -19,112 0,0 -19,53 -54,92 0,0 -35,38 -85,61 0,0 -51,23 -113,23 0,0 -63,0 -113,-23 0,0 -49,-23 -84,-61 0,0 -35,-39 -54,-92 0,0 -19,-53 -19,-112 0,0 0,-60 19,-113 0,0 19,-52 54,-91 0,0 35,-39 84,-61 0,0 50,-23 113,-23 z m 0,-88 c 0,0 -83,0 -153,28 0,0 -71,28 -121,78 0,0 -50,51 -79,120 0,0 -28,68 -28,149 0,0 0,81 28,150 0,0 29,69 79,119 0,0 50,51 121,79 0,0 70,28 153,28 0,0 84,0 154,-28 0,0 70,-28 121,-79 0,0 50,-50 78,-119 0,0 29,-69 29,-150 0,0 0,-81 -29,-149 0,0 -28,-69 -78,-120 0,0 -51,-50 -121,-78 0,0 -70,-28 -154,-28 z"
       id="f0_j"
       transform="matrix(0.001,0,0,-0.001,0,0)"
       inkscape:connector-curvature="0" />
    <path
       d="m 403,-18 c 0,0 -136,0 -204,80 0,0 -68,81 -68,214 V 715 H 235 V 319 c 0,0 0,-57 9,-102 0,0 9,-46 31,-79 0,0 22,-33 60,-51 0,0 37,-19 94,-19 0,0 41,0 80,17 0,0 39,17 70,51 0,0 31,35 49,88 0,0 18,52 18,124 V 715 H 750 V 157 c 0,0 0,-29 1,-75 0,0 2,-46 5,-82 h -99 c 0,0 -3,29 -4,64 0,0 -2,35 -2,58 h -3 c 0,0 -31,-62 -100,-101 0,0 -68,-39 -145,-39 z"
       id="f0_m"
       transform="matrix(0.001,0,0,-0.001,0,0)"
       inkscape:connector-curvature="0" />
  </defs>
  <!-- Any embedded fonts defined here -->
  <style
     type="text/css"
     id="style161"><![CDATA[

@font-face {
	font-family: AvenirNext-Regular_u;
	src: url("fonts/AvenirNext-Regular_u.woff") format("woff");
}

]]></style>
</svg>
